<mxfile host="app.diagrams.net" modified="2024-03-13T06:53:45.685Z" agent="Mozilla/5.0 (Macintosh; Intel Mac OS X 10_15_7) AppleWebKit/537.36 (KHTML, like Gecko) Chrome/122.0.0.0 Safari/537.36" etag="9hWJffDqAPWOuY1oAl5-" version="24.0.5" type="github">
  <diagram id="6a731a19-8d31-9384-78a2-239565b7b9f0" name="Page-1">
    <mxGraphModel dx="1723" dy="1632" grid="1" gridSize="10" guides="1" tooltips="1" connect="1" arrows="1" fold="1" page="1" pageScale="1" pageWidth="1169" pageHeight="827" background="none" math="0" shadow="0">
      <root>
        <mxCell id="0" />
        <mxCell id="1" parent="0" />
        <mxCell id="2" value="开始" style="shape=mxgraph.flowchart.terminator;strokeWidth=2;gradientColor=none;gradientDirection=north;fontStyle=0;html=1;" parent="1" vertex="1">
          <mxGeometry x="260" y="60" width="120" height="30" as="geometry" />
        </mxCell>
        <mxCell id="3" value="编译&lt;div&gt;注入核心代码、&lt;/div&gt;&lt;div&gt;初始化函数&lt;/div&gt;" style="shape=mxgraph.flowchart.data;strokeWidth=2;gradientColor=none;gradientDirection=north;fontStyle=0;html=1;" parent="1" vertex="1">
          <mxGeometry x="240.5" y="130" width="159" height="80" as="geometry" />
        </mxCell>
        <mxCell id="4" value="create&#xa;material&#xa;specification" style="shape=mxgraph.flowchart.data;strokeWidth=2;gradientColor=none;gradientDirection=north;fontStyle=0;html=1;" parent="1" vertex="1">
          <mxGeometry x="240.5" y="510" width="159" height="80" as="geometry" />
        </mxCell>
        <mxCell id="5" value="初始化数据" style="shape=mxgraph.flowchart.data;strokeWidth=2;gradientColor=none;gradientDirection=north;fontStyle=0;html=1;" parent="1" vertex="1">
          <mxGeometry x="240.5" y="250" width="159" height="80" as="geometry" />
        </mxCell>
        <mxCell id="7" style="fontStyle=1;strokeColor=#003366;strokeWidth=1;html=1;" parent="1" source="2" target="3" edge="1">
          <mxGeometry relative="1" as="geometry" />
        </mxCell>
        <mxCell id="8" style="fontStyle=1;strokeColor=#003366;strokeWidth=1;html=1;" parent="1" source="3" target="5" edge="1">
          <mxGeometry relative="1" as="geometry" />
        </mxCell>
        <mxCell id="9" style="entryX=0.5;entryY=0;entryPerimeter=0;fontStyle=1;strokeColor=#003366;strokeWidth=1;html=1;" parent="1" source="5" edge="1">
          <mxGeometry relative="1" as="geometry">
            <mxPoint x="320" y="390" as="targetPoint" />
          </mxGeometry>
        </mxCell>
        <mxCell id="13" value="order material" style="shape=mxgraph.flowchart.data;strokeWidth=2;gradientColor=none;gradientDirection=north;fontStyle=0;html=1;" parent="1" vertex="1">
          <mxGeometry x="240.5" y="640" width="159" height="80" as="geometry" />
        </mxCell>
        <mxCell id="17" value="" style="edgeStyle=elbowEdgeStyle;elbow=horizontal;fontStyle=1;strokeColor=#003366;strokeWidth=1;html=1;" parent="1" source="4" target="13" edge="1">
          <mxGeometry width="100" height="100" as="geometry">
            <mxPoint y="100" as="sourcePoint" />
            <mxPoint x="100" as="targetPoint" />
          </mxGeometry>
        </mxCell>
        <mxCell id="20" value="organize &#xa;workforce" style="shape=mxgraph.flowchart.manual_input;strokeWidth=2;gradientColor=none;gradientDirection=north;fontStyle=0;html=1;" parent="1" vertex="1">
          <mxGeometry x="242" y="780" width="158" height="80" as="geometry" />
        </mxCell>
        <mxCell id="21" value="" style="edgeStyle=elbowEdgeStyle;elbow=horizontal;entryX=0.5;entryY=0.195;entryPerimeter=0;fontStyle=1;strokeColor=#003366;strokeWidth=1;html=1;" parent="1" source="13" target="20" edge="1">
          <mxGeometry width="100" height="100" as="geometry">
            <mxPoint y="100" as="sourcePoint" />
            <mxPoint x="100" as="targetPoint" />
          </mxGeometry>
        </mxCell>
        <mxCell id="22" value="create Gantt&#xa;diagram" style="shape=mxgraph.flowchart.document;strokeWidth=2;gradientColor=none;gradientDirection=north;fontStyle=0;html=1;" parent="1" vertex="1">
          <mxGeometry x="240.5" y="920" width="159" height="90" as="geometry" />
        </mxCell>
        <mxCell id="23" value="" style="edgeStyle=elbowEdgeStyle;elbow=horizontal;exitX=0.5;exitY=1;exitPerimeter=0;fontStyle=1;strokeColor=#003366;strokeWidth=1;html=1;" parent="1" source="20" target="22" edge="1">
          <mxGeometry width="100" height="100" as="geometry">
            <mxPoint y="100" as="sourcePoint" />
            <mxPoint x="100" as="targetPoint" />
          </mxGeometry>
        </mxCell>
        <mxCell id="25" value="" style="edgeStyle=elbowEdgeStyle;elbow=horizontal;exitX=0.5;exitY=0.9;exitPerimeter=0;fontStyle=1;strokeColor=#003366;strokeWidth=1;html=1;" parent="1" source="22" edge="1">
          <mxGeometry width="100" height="100" as="geometry">
            <mxPoint y="100" as="sourcePoint" />
            <mxPoint x="320" y="1080" as="targetPoint" />
          </mxGeometry>
        </mxCell>
        <mxCell id="26" value="" style="edgeStyle=elbowEdgeStyle;elbow=horizontal;exitX=0;exitY=0.5;exitPerimeter=0;fontStyle=1;strokeColor=#003366;strokeWidth=1;html=1;" parent="1" edge="1">
          <mxGeometry width="100" height="100" as="geometry">
            <mxPoint x="255" y="1260" as="sourcePoint" />
            <mxPoint x="190" y="560" as="targetPoint" />
            <Array as="points">
              <mxPoint x="160" y="850" />
            </Array>
          </mxGeometry>
        </mxCell>
        <mxCell id="40" value="结束" style="shape=mxgraph.flowchart.terminator;strokeWidth=2;gradientColor=none;gradientDirection=north;fontStyle=0;html=1;" parent="1" vertex="1">
          <mxGeometry x="260" y="1910" width="120" height="30" as="geometry" />
        </mxCell>
        <mxCell id="1BIcpCfRkdnZa632O0yS-56" value="&lt;div style=&quot;margin: 0px; padding: 0px 1em 0px 0em; border-radius: 0px; background: none rgb(255, 255, 255); border: 0px; inset: auto; float: none; height: auto; line-height: 20px; outline: 0px; overflow: visible; position: static; text-align: left; vertical-align: baseline; width: auto; box-sizing: content-box; font-family: Consolas, &amp;quot;Bitstream Vera Sans Mono&amp;quot;, &amp;quot;Courier New&amp;quot;, Courier, monospace; font-size: 14px; min-height: inherit; text-wrap: nowrap; color: rgb(51, 51, 51);&quot; data-bidi-marker=&quot;true&quot; class=&quot;line number1 index0 alt2&quot;&gt;&lt;code style=&quot;font-family: Consolas, &amp;quot;Bitstream Vera Sans Mono&amp;quot;, &amp;quot;Courier New&amp;quot;, Courier, monospace; border-radius: 0px; background: none; border: 0px; inset: auto; float: none; height: auto; line-height: 20px; margin: 0px; outline: 0px; overflow: visible; padding: 0px; position: static; vertical-align: baseline; width: auto; box-sizing: content-box; min-height: inherit; color: rgb(0, 0, 0) !important;&quot; class=&quot;js plain&quot;&gt;{&lt;/code&gt;&lt;/div&gt;&lt;div style=&quot;margin: 0px; padding: 0px 1em 0px 0em; border-radius: 0px; background: none rgb(255, 255, 255); border: 0px; inset: auto; float: none; height: auto; line-height: 20px; outline: 0px; overflow: visible; position: static; text-align: left; vertical-align: baseline; width: auto; box-sizing: content-box; font-family: Consolas, &amp;quot;Bitstream Vera Sans Mono&amp;quot;, &amp;quot;Courier New&amp;quot;, Courier, monospace; font-size: 14px; min-height: inherit; text-wrap: nowrap; color: rgb(51, 51, 51);&quot; data-bidi-marker=&quot;true&quot; class=&quot;line number1 index0 alt2&quot;&gt;&lt;code style=&quot;font-family: Consolas, &amp;quot;Bitstream Vera Sans Mono&amp;quot;, &amp;quot;Courier New&amp;quot;, Courier, monospace; border-radius: 0px; background: none; border: 0px; inset: auto; float: none; height: auto; line-height: 20px; margin: 0px; outline: 0px; overflow: visible; padding: 0px; position: static; vertical-align: baseline; width: auto; box-sizing: content-box; min-height: inherit; color: rgb(0, 0, 0) !important;&quot; class=&quot;js plain&quot;&gt;&amp;nbsp; // 以下数据为配置数据&lt;/code&gt;&lt;/div&gt;&lt;div style=&quot;margin: 0px; padding: 0px 1em 0px 0em; border-radius: 0px; background: none rgb(255, 255, 255); border: 0px; inset: auto; float: none; height: auto; line-height: 20px; outline: 0px; overflow: visible; position: static; text-align: left; vertical-align: baseline; width: auto; box-sizing: content-box; font-family: Consolas, &amp;quot;Bitstream Vera Sans Mono&amp;quot;, &amp;quot;Courier New&amp;quot;, Courier, monospace; font-size: 14px; min-height: inherit; text-wrap: nowrap; color: rgb(51, 51, 51);&quot; data-bidi-marker=&quot;true&quot; class=&quot;line number2 index1 alt1&quot;&gt;&lt;code style=&quot;font-family: Consolas, &amp;quot;Bitstream Vera Sans Mono&amp;quot;, &amp;quot;Courier New&amp;quot;, Courier, monospace; border-radius: 0px; background: none; border: 0px; inset: auto; float: none; height: auto; line-height: 20px; margin: 0px; outline: 0px; overflow: visible; padding: 0px; position: static; vertical-align: baseline; width: auto; box-sizing: content-box; min-height: inherit;&quot; class=&quot;js spaces&quot;&gt;&amp;nbsp;&amp;nbsp;&lt;/code&gt;&lt;code style=&quot;font-family: Consolas, &amp;quot;Bitstream Vera Sans Mono&amp;quot;, &amp;quot;Courier New&amp;quot;, Courier, monospace; border-radius: 0px; background: none; border: 0px; inset: auto; float: none; height: auto; line-height: 20px; margin: 0px; outline: 0px; overflow: visible; padding: 0px; position: static; vertical-align: baseline; width: auto; box-sizing: content-box; min-height: inherit; color: rgb(0, 0, 0) !important;&quot; class=&quot;js plain&quot;&gt;types:[&lt;/code&gt;&lt;code style=&quot;font-family: Consolas, &amp;quot;Bitstream Vera Sans Mono&amp;quot;, &amp;quot;Courier New&amp;quot;, Courier, monospace; border-radius: 0px; background: none; border: 0px; inset: auto; float: none; height: auto; line-height: 20px; margin: 0px; outline: 0px; overflow: visible; padding: 0px; position: static; vertical-align: baseline; width: auto; box-sizing: content-box; min-height: inherit; color: rgb(0, 51, 102) !important;&quot; class=&quot;js string&quot;&gt;&quot;js&quot;&lt;/code&gt;&lt;code style=&quot;font-family: Consolas, &amp;quot;Bitstream Vera Sans Mono&amp;quot;, &amp;quot;Courier New&amp;quot;, Courier, monospace; border-radius: 0px; background: none; border: 0px; inset: auto; float: none; height: auto; line-height: 20px; margin: 0px; outline: 0px; overflow: visible; padding: 0px; position: static; vertical-align: baseline; width: auto; box-sizing: content-box; min-height: inherit; color: rgb(0, 0, 0) !important;&quot; class=&quot;js plain&quot;&gt;,&lt;/code&gt;&lt;code style=&quot;font-family: Consolas, &amp;quot;Bitstream Vera Sans Mono&amp;quot;, &amp;quot;Courier New&amp;quot;, Courier, monospace; border-radius: 0px; background: none; border: 0px; inset: auto; float: none; height: auto; line-height: 20px; margin: 0px; outline: 0px; overflow: visible; padding: 0px; position: static; vertical-align: baseline; width: auto; box-sizing: content-box; min-height: inherit; color: rgb(0, 51, 102) !important;&quot; class=&quot;js string&quot;&gt;&quot;css&quot;&lt;/code&gt;&lt;code style=&quot;font-family: Consolas, &amp;quot;Bitstream Vera Sans Mono&amp;quot;, &amp;quot;Courier New&amp;quot;, Courier, monospace; border-radius: 0px; background: none; border: 0px; inset: auto; float: none; height: auto; line-height: 20px; margin: 0px; outline: 0px; overflow: visible; padding: 0px; position: static; vertical-align: baseline; width: auto; box-sizing: content-box; min-height: inherit; color: rgb(0, 0, 0) !important;&quot; class=&quot;js plain&quot;&gt;,&lt;/code&gt;&lt;code style=&quot;font-family: Consolas, &amp;quot;Bitstream Vera Sans Mono&amp;quot;, &amp;quot;Courier New&amp;quot;, Courier, monospace; border-radius: 0px; background: none; border: 0px; inset: auto; float: none; height: auto; line-height: 20px; margin: 0px; outline: 0px; overflow: visible; padding: 0px; position: static; vertical-align: baseline; width: auto; box-sizing: content-box; min-height: inherit; color: rgb(0, 51, 102) !important;&quot; class=&quot;js string&quot;&gt;&quot;img&quot;&lt;/code&gt;&lt;code style=&quot;font-family: Consolas, &amp;quot;Bitstream Vera Sans Mono&amp;quot;, &amp;quot;Courier New&amp;quot;, Courier, monospace; border-radius: 0px; background: none; border: 0px; inset: auto; float: none; height: auto; line-height: 20px; margin: 0px; outline: 0px; overflow: visible; padding: 0px; position: static; vertical-align: baseline; width: auto; box-sizing: content-box; min-height: inherit; color: rgb(0, 0, 0) !important;&quot; class=&quot;js plain&quot;&gt;,&lt;/code&gt;&lt;code style=&quot;font-family: Consolas, &amp;quot;Bitstream Vera Sans Mono&amp;quot;, &amp;quot;Courier New&amp;quot;, Courier, monospace; border-radius: 0px; background: none; border: 0px; inset: auto; float: none; height: auto; line-height: 20px; margin: 0px; outline: 0px; overflow: visible; padding: 0px; position: static; vertical-align: baseline; width: auto; box-sizing: content-box; min-height: inherit; color: rgb(0, 51, 102) !important;&quot; class=&quot;js string&quot;&gt;&quot;audio&quot;&lt;/code&gt;&lt;code style=&quot;font-family: Consolas, &amp;quot;Bitstream Vera Sans Mono&amp;quot;, &amp;quot;Courier New&amp;quot;, Courier, monospace; border-radius: 0px; background: none; border: 0px; inset: auto; float: none; height: auto; line-height: 20px; margin: 0px; outline: 0px; overflow: visible; padding: 0px; position: static; vertical-align: baseline; width: auto; box-sizing: content-box; min-height: inherit; color: rgb(0, 0, 0) !important;&quot; class=&quot;js plain&quot;&gt;,&lt;/code&gt;&lt;code style=&quot;font-family: Consolas, &amp;quot;Bitstream Vera Sans Mono&amp;quot;, &amp;quot;Courier New&amp;quot;, Courier, monospace; border-radius: 0px; background: none; border: 0px; inset: auto; float: none; height: auto; line-height: 20px; margin: 0px; outline: 0px; overflow: visible; padding: 0px; position: static; vertical-align: baseline; width: auto; box-sizing: content-box; min-height: inherit; color: rgb(0, 51, 102) !important;&quot; class=&quot;js string&quot;&gt;&quot;video&quot;&lt;/code&gt;&lt;code style=&quot;font-family: Consolas, &amp;quot;Bitstream Vera Sans Mono&amp;quot;, &amp;quot;Courier New&amp;quot;, Courier, monospace; border-radius: 0px; background: none; border: 0px; inset: auto; float: none; height: auto; line-height: 20px; margin: 0px; outline: 0px; overflow: visible; padding: 0px; position: static; vertical-align: baseline; width: auto; box-sizing: content-box; min-height: inherit; color: rgb(0, 0, 0) !important;&quot; class=&quot;js plain&quot;&gt;],&lt;/code&gt;&lt;/div&gt;&lt;div style=&quot;margin: 0px; padding: 0px 1em 0px 0em; border-radius: 0px; background: none rgb(255, 255, 255); border: 0px; inset: auto; float: none; height: auto; line-height: 20px; outline: 0px; overflow: visible; position: static; text-align: left; vertical-align: baseline; width: auto; box-sizing: content-box; font-family: Consolas, &amp;quot;Bitstream Vera Sans Mono&amp;quot;, &amp;quot;Courier New&amp;quot;, Courier, monospace; font-size: 14px; min-height: inherit; text-wrap: nowrap; color: rgb(51, 51, 51);&quot; data-bidi-marker=&quot;true&quot; class=&quot;line number3 index2 alt2&quot;&gt;&lt;code style=&quot;font-family: Consolas, &amp;quot;Bitstream Vera Sans Mono&amp;quot;, &amp;quot;Courier New&amp;quot;, Courier, monospace; border-radius: 0px; background: none; border: 0px; inset: auto; float: none; height: auto; line-height: 20px; margin: 0px; outline: 0px; overflow: visible; padding: 0px; position: static; vertical-align: baseline; width: auto; box-sizing: content-box; min-height: inherit;&quot; class=&quot;js spaces&quot;&gt;&amp;nbsp;&amp;nbsp;&lt;/code&gt;&lt;code style=&quot;font-family: Consolas, &amp;quot;Bitstream Vera Sans Mono&amp;quot;, &amp;quot;Courier New&amp;quot;, Courier, monospace; border-radius: 0px; background: none; border: 0px; inset: auto; float: none; height: auto; line-height: 20px; margin: 0px; outline: 0px; overflow: visible; padding: 0px; position: static; vertical-align: baseline; width: auto; box-sizing: content-box; min-height: inherit; color: rgb(0, 0, 0) !important;&quot; class=&quot;js plain&quot;&gt;module:&lt;/code&gt;&lt;code style=&quot;font-family: Consolas, &amp;quot;Bitstream Vera Sans Mono&amp;quot;, &amp;quot;Courier New&amp;quot;, Courier, monospace; border-radius: 0px; background: none; border: 0px; inset: auto; float: none; height: auto; line-height: 20px; margin: 0px; outline: 0px; overflow: visible; padding: 0px; position: static; vertical-align: baseline; width: auto; box-sizing: content-box; min-height: inherit; color: rgb(0, 51, 102) !important;&quot; class=&quot;js string&quot;&gt;&quot;xxx&quot;&lt;/code&gt;&lt;code style=&quot;font-family: Consolas, &amp;quot;Bitstream Vera Sans Mono&amp;quot;, &amp;quot;Courier New&amp;quot;, Courier, monospace; border-radius: 0px; background: none; border: 0px; inset: auto; float: none; height: auto; line-height: 20px; margin: 0px; outline: 0px; overflow: visible; padding: 0px; position: static; vertical-align: baseline; width: auto; box-sizing: content-box; min-height: inherit; color: rgb(0, 0, 0) !important;&quot; class=&quot;js plain&quot;&gt;,&lt;/code&gt;&lt;/div&gt;&lt;div style=&quot;margin: 0px; padding: 0px 1em 0px 0em; border-radius: 0px; background: none rgb(255, 255, 255); border: 0px; inset: auto; float: none; height: auto; line-height: 20px; outline: 0px; overflow: visible; position: static; text-align: left; vertical-align: baseline; width: auto; box-sizing: content-box; font-family: Consolas, &amp;quot;Bitstream Vera Sans Mono&amp;quot;, &amp;quot;Courier New&amp;quot;, Courier, monospace; font-size: 14px; min-height: inherit; text-wrap: nowrap; color: rgb(51, 51, 51);&quot; data-bidi-marker=&quot;true&quot; class=&quot;line number4 index3 alt1&quot;&gt;&lt;code style=&quot;font-family: Consolas, &amp;quot;Bitstream Vera Sans Mono&amp;quot;, &amp;quot;Courier New&amp;quot;, Courier, monospace; border-radius: 0px; background: none; border: 0px; inset: auto; float: none; height: auto; line-height: 20px; margin: 0px; outline: 0px; overflow: visible; padding: 0px; position: static; vertical-align: baseline; width: auto; box-sizing: content-box; min-height: inherit;&quot; class=&quot;js spaces&quot;&gt;&amp;nbsp;&amp;nbsp;&lt;/code&gt;&lt;code style=&quot;font-family: Consolas, &amp;quot;Bitstream Vera Sans Mono&amp;quot;, &amp;quot;Courier New&amp;quot;, Courier, monospace; border-radius: 0px; background: none; border: 0px; inset: auto; float: none; height: auto; line-height: 20px; margin: 0px; outline: 0px; overflow: visible; padding: 0px; position: static; vertical-align: baseline; width: auto; box-sizing: content-box; min-height: inherit; color: rgb(0, 0, 0) !important;&quot; class=&quot;js plain&quot;&gt;alias:&lt;/code&gt;&lt;code style=&quot;font-family: Consolas, &amp;quot;Bitstream Vera Sans Mono&amp;quot;, &amp;quot;Courier New&amp;quot;, Courier, monospace; border-radius: 0px; background: none; border: 0px; inset: auto; float: none; height: auto; line-height: 20px; margin: 0px; outline: 0px; overflow: visible; padding: 0px; position: static; vertical-align: baseline; width: auto; box-sizing: content-box; min-height: inherit; color: rgb(0, 51, 102) !important;&quot; class=&quot;js string&quot;&gt;&quot;feCdnSDK&quot;&lt;/code&gt;&lt;code style=&quot;font-family: Consolas, &amp;quot;Bitstream Vera Sans Mono&amp;quot;, &amp;quot;Courier New&amp;quot;, Courier, monospace; border-radius: 0px; background: none; border: 0px; inset: auto; float: none; height: auto; line-height: 20px; margin: 0px; outline: 0px; overflow: visible; padding: 0px; position: static; vertical-align: baseline; width: auto; box-sizing: content-box; min-height: inherit; color: rgb(0, 0, 0) !important;&quot; class=&quot;js plain&quot;&gt;,&lt;/code&gt;&lt;/div&gt;&lt;div style=&quot;margin: 0px; padding: 0px 1em 0px 0em; border-radius: 0px; background: none rgb(255, 255, 255); border: 0px; inset: auto; float: none; height: auto; line-height: 20px; outline: 0px; overflow: visible; position: static; text-align: left; vertical-align: baseline; width: auto; box-sizing: content-box; font-family: Consolas, &amp;quot;Bitstream Vera Sans Mono&amp;quot;, &amp;quot;Courier New&amp;quot;, Courier, monospace; font-size: 14px; min-height: inherit; text-wrap: nowrap; color: rgb(51, 51, 51);&quot; data-bidi-marker=&quot;true&quot; class=&quot;line number5 index4 alt2&quot;&gt;&lt;code style=&quot;font-family: Consolas, &amp;quot;Bitstream Vera Sans Mono&amp;quot;, &amp;quot;Courier New&amp;quot;, Courier, monospace; border-radius: 0px; background: none; border: 0px; inset: auto; float: none; height: auto; line-height: 20px; margin: 0px; outline: 0px; overflow: visible; padding: 0px; position: static; vertical-align: baseline; width: auto; box-sizing: content-box; min-height: inherit;&quot; class=&quot;js spaces&quot;&gt;&amp;nbsp;&amp;nbsp;&lt;/code&gt;&lt;code style=&quot;font-family: Consolas, &amp;quot;Bitstream Vera Sans Mono&amp;quot;, &amp;quot;Courier New&amp;quot;, Courier, monospace; border-radius: 0px; background: none; border: 0px; inset: auto; float: none; height: auto; line-height: 20px; margin: 0px; outline: 0px; overflow: visible; padding: 0px; position: static; vertical-align: baseline; width: auto; box-sizing: content-box; min-height: inherit; color: rgb(0, 0, 0) !important;&quot; class=&quot;js plain&quot;&gt;debug:!0,&lt;/code&gt;&lt;/div&gt;&lt;div style=&quot;margin: 0px; padding: 0px 1em 0px 0em; border-radius: 0px; background: none rgb(255, 255, 255); border: 0px; inset: auto; float: none; height: auto; line-height: 20px; outline: 0px; overflow: visible; position: static; text-align: left; vertical-align: baseline; width: auto; box-sizing: content-box; font-family: Consolas, &amp;quot;Bitstream Vera Sans Mono&amp;quot;, &amp;quot;Courier New&amp;quot;, Courier, monospace; font-size: 14px; min-height: inherit; text-wrap: nowrap; color: rgb(51, 51, 51);&quot; data-bidi-marker=&quot;true&quot; class=&quot;line number6 index5 alt1&quot;&gt;&lt;code style=&quot;font-family: Consolas, &amp;quot;Bitstream Vera Sans Mono&amp;quot;, &amp;quot;Courier New&amp;quot;, Courier, monospace; border-radius: 0px; background: none; border: 0px; inset: auto; float: none; height: auto; line-height: 20px; margin: 0px; outline: 0px; overflow: visible; padding: 0px; position: static; vertical-align: baseline; width: auto; box-sizing: content-box; min-height: inherit;&quot; class=&quot;js spaces&quot;&gt;&amp;nbsp;&amp;nbsp;&lt;/code&gt;&lt;code style=&quot;font-family: Consolas, &amp;quot;Bitstream Vera Sans Mono&amp;quot;, &amp;quot;Courier New&amp;quot;, Courier, monospace; border-radius: 0px; background: none; border: 0px; inset: auto; float: none; height: auto; line-height: 20px; margin: 0px; outline: 0px; overflow: visible; padding: 0px; position: static; vertical-align: baseline; width: auto; box-sizing: content-box; min-height: inherit; color: rgb(0, 0, 0) !important;&quot; class=&quot;js plain&quot;&gt;switchControl:!0,&lt;/code&gt;&lt;/div&gt;&lt;div style=&quot;margin: 0px; padding: 0px 1em 0px 0em; border-radius: 0px; background: none rgb(255, 255, 255); border: 0px; inset: auto; float: none; height: auto; line-height: 20px; outline: 0px; overflow: visible; position: static; text-align: left; vertical-align: baseline; width: auto; box-sizing: content-box; font-family: Consolas, &amp;quot;Bitstream Vera Sans Mono&amp;quot;, &amp;quot;Courier New&amp;quot;, Courier, monospace; font-size: 14px; min-height: inherit; text-wrap: nowrap; color: rgb(51, 51, 51);&quot; data-bidi-marker=&quot;true&quot; class=&quot;line number7 index6 alt2&quot;&gt;&lt;code style=&quot;font-family: Consolas, &amp;quot;Bitstream Vera Sans Mono&amp;quot;, &amp;quot;Courier New&amp;quot;, Courier, monospace; border-radius: 0px; background: none; border: 0px; inset: auto; float: none; height: auto; line-height: 20px; margin: 0px; outline: 0px; overflow: visible; padding: 0px; position: static; vertical-align: baseline; width: auto; box-sizing: content-box; min-height: inherit;&quot; class=&quot;js spaces&quot;&gt;&amp;nbsp;&amp;nbsp;&lt;/code&gt;&lt;code style=&quot;font-family: Consolas, &amp;quot;Bitstream Vera Sans Mono&amp;quot;, &amp;quot;Courier New&amp;quot;, Courier, monospace; border-radius: 0px; background: none; border: 0px; inset: auto; float: none; height: auto; line-height: 20px; margin: 0px; outline: 0px; overflow: visible; padding: 0px; position: static; vertical-align: baseline; width: auto; box-sizing: content-box; min-height: inherit; color: rgb(0, 0, 0) !important;&quot; class=&quot;js plain&quot;&gt;version:&lt;/code&gt;&lt;code style=&quot;font-family: Consolas, &amp;quot;Bitstream Vera Sans Mono&amp;quot;, &amp;quot;Courier New&amp;quot;, Courier, monospace; border-radius: 0px; background: none; border: 0px; inset: auto; float: none; height: auto; line-height: 20px; margin: 0px; outline: 0px; overflow: visible; padding: 0px; position: static; vertical-align: baseline; width: auto; box-sizing: content-box; min-height: inherit; color: rgb(0, 51, 102) !important;&quot; class=&quot;js string&quot;&gt;&quot;0.0.12-beta.3&quot;&lt;/code&gt;&lt;code style=&quot;font-family: Consolas, &amp;quot;Bitstream Vera Sans Mono&amp;quot;, &amp;quot;Courier New&amp;quot;, Courier, monospace; border-radius: 0px; background: none; border: 0px; inset: auto; float: none; height: auto; line-height: 20px; margin: 0px; outline: 0px; overflow: visible; padding: 0px; position: static; vertical-align: baseline; width: auto; box-sizing: content-box; min-height: inherit; color: rgb(0, 0, 0) !important;&quot; class=&quot;js plain&quot;&gt;,&lt;/code&gt;&lt;/div&gt;&lt;div style=&quot;margin: 0px; padding: 0px 1em 0px 0em; border-radius: 0px; background: none rgb(255, 255, 255); border: 0px; inset: auto; float: none; height: auto; line-height: 20px; outline: 0px; overflow: visible; position: static; text-align: left; vertical-align: baseline; width: auto; box-sizing: content-box; font-family: Consolas, &amp;quot;Bitstream Vera Sans Mono&amp;quot;, &amp;quot;Courier New&amp;quot;, Courier, monospace; font-size: 14px; min-height: inherit; text-wrap: nowrap; color: rgb(51, 51, 51);&quot; data-bidi-marker=&quot;true&quot; class=&quot;line number8 index7 alt1&quot;&gt;&lt;code style=&quot;font-family: Consolas, &amp;quot;Bitstream Vera Sans Mono&amp;quot;, &amp;quot;Courier New&amp;quot;, Courier, monospace; border-radius: 0px; background: none; border: 0px; inset: auto; float: none; height: auto; line-height: 20px; margin: 0px; outline: 0px; overflow: visible; padding: 0px; position: static; vertical-align: baseline; width: auto; box-sizing: content-box; min-height: inherit;&quot; class=&quot;js spaces&quot;&gt;&amp;nbsp;&amp;nbsp;&lt;/code&gt;&lt;code style=&quot;font-family: Consolas, &amp;quot;Bitstream Vera Sans Mono&amp;quot;, &amp;quot;Courier New&amp;quot;, Courier, monospace; border-radius: 0px; background: none; border: 0px; inset: auto; float: none; height: auto; line-height: 20px; margin: 0px; outline: 0px; overflow: visible; padding: 0px; position: static; vertical-align: baseline; width: auto; box-sizing: content-box; min-height: inherit; color: rgb(0, 0, 0) !important;&quot; class=&quot;js plain&quot;&gt;env:&lt;/code&gt;&lt;code style=&quot;font-family: Consolas, &amp;quot;Bitstream Vera Sans Mono&amp;quot;, &amp;quot;Courier New&amp;quot;, Courier, monospace; border-radius: 0px; background: none; border: 0px; inset: auto; float: none; height: auto; line-height: 20px; margin: 0px; outline: 0px; overflow: visible; padding: 0px; position: static; vertical-align: baseline; width: auto; box-sizing: content-box; min-height: inherit; color: rgb(0, 51, 102) !important;&quot; class=&quot;js string&quot;&gt;&quot;vite&quot;&lt;/code&gt;&lt;code style=&quot;font-family: Consolas, &amp;quot;Bitstream Vera Sans Mono&amp;quot;, &amp;quot;Courier New&amp;quot;, Courier, monospace; border-radius: 0px; background: none; border: 0px; inset: auto; float: none; height: auto; line-height: 20px; margin: 0px; outline: 0px; overflow: visible; padding: 0px; position: static; vertical-align: baseline; width: auto; box-sizing: content-box; min-height: inherit; color: rgb(0, 0, 0) !important;&quot; class=&quot;js plain&quot;&gt;,&lt;/code&gt;&lt;/div&gt;&lt;div style=&quot;margin: 0px; padding: 0px 1em 0px 0em; border-radius: 0px; background: none rgb(255, 255, 255); border: 0px; inset: auto; float: none; height: auto; line-height: 20px; outline: 0px; overflow: visible; position: static; text-align: left; vertical-align: baseline; width: auto; box-sizing: content-box; font-family: Consolas, &amp;quot;Bitstream Vera Sans Mono&amp;quot;, &amp;quot;Courier New&amp;quot;, Courier, monospace; font-size: 14px; min-height: inherit; text-wrap: nowrap;&quot; data-bidi-marker=&quot;true&quot; class=&quot;line number8 index7 alt1&quot;&gt;&amp;nbsp; // 以下数据为编译生成&lt;/div&gt;&lt;div style=&quot;margin: 0px; padding: 0px 1em 0px 0em; border-radius: 0px; background: none rgb(255, 255, 255); border: 0px; inset: auto; float: none; height: auto; line-height: 20px; outline: 0px; overflow: visible; position: static; text-align: left; vertical-align: baseline; width: auto; box-sizing: content-box; font-family: Consolas, &amp;quot;Bitstream Vera Sans Mono&amp;quot;, &amp;quot;Courier New&amp;quot;, Courier, monospace; font-size: 14px; min-height: inherit; text-wrap: nowrap; color: rgb(51, 51, 51);&quot; data-bidi-marker=&quot;true&quot; class=&quot;line number9 index8 alt2&quot;&gt;&lt;code style=&quot;font-family: Consolas, &amp;quot;Bitstream Vera Sans Mono&amp;quot;, &amp;quot;Courier New&amp;quot;, Courier, monospace; border-radius: 0px; background: none; border: 0px; inset: auto; float: none; height: auto; line-height: 20px; margin: 0px; outline: 0px; overflow: visible; padding: 0px; position: static; vertical-align: baseline; width: auto; box-sizing: content-box; min-height: inherit;&quot; class=&quot;js spaces&quot;&gt;&amp;nbsp;&amp;nbsp;&lt;/code&gt;&lt;code style=&quot;font-family: Consolas, &amp;quot;Bitstream Vera Sans Mono&amp;quot;, &amp;quot;Courier New&amp;quot;, Courier, monospace; border-radius: 0px; background: none; border: 0px; inset: auto; float: none; height: auto; line-height: 20px; margin: 0px; outline: 0px; overflow: visible; padding: 0px; position: static; vertical-align: baseline; width: auto; box-sizing: content-box; min-height: inherit; color: rgb(0, 0, 0) !important;&quot; class=&quot;js plain&quot;&gt;localConfig:[&amp;nbsp;&lt;/code&gt;&lt;code style=&quot;font-family: Consolas, &amp;quot;Bitstream Vera Sans Mono&amp;quot;, &amp;quot;Courier New&amp;quot;, Courier, monospace; border-radius: 0px; background: none; border: 0px; inset: auto; float: none; height: auto; line-height: 20px; margin: 0px; outline: 0px; overflow: visible; padding: 0px; position: static; vertical-align: baseline; width: auto; box-sizing: content-box; min-height: inherit; color: rgb(0, 130, 0) !important;&quot; class=&quot;js comments&quot;&gt;// 来自《域名规则》(接口）&lt;/code&gt;&lt;/div&gt;&lt;div style=&quot;margin: 0px; padding: 0px 1em 0px 0em; border-radius: 0px; background: none rgb(255, 255, 255); border: 0px; inset: auto; float: none; height: auto; line-height: 20px; outline: 0px; overflow: visible; position: static; text-align: left; vertical-align: baseline; width: auto; box-sizing: content-box; font-family: Consolas, &amp;quot;Bitstream Vera Sans Mono&amp;quot;, &amp;quot;Courier New&amp;quot;, Courier, monospace; font-size: 14px; min-height: inherit; text-wrap: nowrap; color: rgb(51, 51, 51);&quot; data-bidi-marker=&quot;true&quot; class=&quot;line number10 index9 alt1&quot;&gt;&lt;code style=&quot;font-family: Consolas, &amp;quot;Bitstream Vera Sans Mono&amp;quot;, &amp;quot;Courier New&amp;quot;, Courier, monospace; border-radius: 0px; background: none; border: 0px; inset: auto; float: none; height: auto; line-height: 20px; margin: 0px; outline: 0px; overflow: visible; padding: 0px; position: static; vertical-align: baseline; width: auto; box-sizing: content-box; min-height: inherit;&quot; class=&quot;js spaces&quot;&gt;&amp;nbsp;&amp;nbsp;&amp;nbsp;&amp;nbsp;&lt;/code&gt;&lt;code style=&quot;font-family: Consolas, &amp;quot;Bitstream Vera Sans Mono&amp;quot;, &amp;quot;Courier New&amp;quot;, Courier, monospace; border-radius: 0px; background: none; border: 0px; inset: auto; float: none; height: auto; line-height: 20px; margin: 0px; outline: 0px; overflow: visible; padding: 0px; position: static; vertical-align: baseline; width: auto; box-sizing: content-box; min-height: inherit; color: rgb(0, 51, 102) !important;&quot; class=&quot;js string&quot;&gt;&quot;330kh.yunsizhixue.com&quot;&lt;/code&gt;&lt;code style=&quot;font-family: Consolas, &amp;quot;Bitstream Vera Sans Mono&amp;quot;, &amp;quot;Courier New&amp;quot;, Courier, monospace; border-radius: 0px; background: none; border: 0px; inset: auto; float: none; height: auto; line-height: 20px; margin: 0px; outline: 0px; overflow: visible; padding: 0px; position: static; vertical-align: baseline; width: auto; box-sizing: content-box; min-height: inherit; color: rgb(0, 0, 0) !important;&quot; class=&quot;js plain&quot;&gt;,&lt;/code&gt;&lt;/div&gt;&lt;div style=&quot;margin: 0px; padding: 0px 1em 0px 0em; border-radius: 0px; background: none rgb(255, 255, 255); border: 0px; inset: auto; float: none; height: auto; line-height: 20px; outline: 0px; overflow: visible; position: static; text-align: left; vertical-align: baseline; width: auto; box-sizing: content-box; font-family: Consolas, &amp;quot;Bitstream Vera Sans Mono&amp;quot;, &amp;quot;Courier New&amp;quot;, Courier, monospace; font-size: 14px; min-height: inherit; text-wrap: nowrap; color: rgb(51, 51, 51);&quot; data-bidi-marker=&quot;true&quot; class=&quot;line number11 index10 alt2&quot;&gt;&lt;code style=&quot;font-family: Consolas, &amp;quot;Bitstream Vera Sans Mono&amp;quot;, &amp;quot;Courier New&amp;quot;, Courier, monospace; border-radius: 0px; background: none; border: 0px; inset: auto; float: none; height: auto; line-height: 20px; margin: 0px; outline: 0px; overflow: visible; padding: 0px; position: static; vertical-align: baseline; width: auto; box-sizing: content-box; min-height: inherit;&quot; class=&quot;js spaces&quot;&gt;&amp;nbsp;&amp;nbsp;&amp;nbsp;&amp;nbsp;&lt;/code&gt;&lt;code style=&quot;font-family: Consolas, &amp;quot;Bitstream Vera Sans Mono&amp;quot;, &amp;quot;Courier New&amp;quot;, Courier, monospace; border-radius: 0px; background: none; border: 0px; inset: auto; float: none; height: auto; line-height: 20px; margin: 0px; outline: 0px; overflow: visible; padding: 0px; position: static; vertical-align: baseline; width: auto; box-sizing: content-box; min-height: inherit; color: rgb(0, 51, 102) !important;&quot; class=&quot;js string&quot;&gt;&quot;330khfw.yunsizhixue.com&quot;&lt;/code&gt;&lt;code style=&quot;font-family: Consolas, &amp;quot;Bitstream Vera Sans Mono&amp;quot;, &amp;quot;Courier New&amp;quot;, Courier, monospace; border-radius: 0px; background: none; border: 0px; inset: auto; float: none; height: auto; line-height: 20px; margin: 0px; outline: 0px; overflow: visible; padding: 0px; position: static; vertical-align: baseline; width: auto; box-sizing: content-box; min-height: inherit; color: rgb(0, 0, 0) !important;&quot; class=&quot;js plain&quot;&gt;,&lt;/code&gt;&lt;/div&gt;&lt;div style=&quot;margin: 0px; padding: 0px 1em 0px 0em; border-radius: 0px; background: none rgb(255, 255, 255); border: 0px; inset: auto; float: none; height: auto; line-height: 20px; outline: 0px; overflow: visible; position: static; text-align: left; vertical-align: baseline; width: auto; box-sizing: content-box; font-family: Consolas, &amp;quot;Bitstream Vera Sans Mono&amp;quot;, &amp;quot;Courier New&amp;quot;, Courier, monospace; font-size: 14px; min-height: inherit; text-wrap: nowrap; color: rgb(51, 51, 51);&quot; data-bidi-marker=&quot;true&quot; class=&quot;line number12 index11 alt1&quot;&gt;&lt;code style=&quot;font-family: Consolas, &amp;quot;Bitstream Vera Sans Mono&amp;quot;, &amp;quot;Courier New&amp;quot;, Courier, monospace; border-radius: 0px; background: none; border: 0px; inset: auto; float: none; height: auto; line-height: 20px; margin: 0px; outline: 0px; overflow: visible; padding: 0px; position: static; vertical-align: baseline; width: auto; box-sizing: content-box; min-height: inherit;&quot; class=&quot;js spaces&quot;&gt;&amp;nbsp;&amp;nbsp;&amp;nbsp;&amp;nbsp;&lt;/code&gt;&lt;code style=&quot;font-family: Consolas, &amp;quot;Bitstream Vera Sans Mono&amp;quot;, &amp;quot;Courier New&amp;quot;, Courier, monospace; border-radius: 0px; background: none; border: 0px; inset: auto; float: none; height: auto; line-height: 20px; margin: 0px; outline: 0px; overflow: visible; padding: 0px; position: static; vertical-align: baseline; width: auto; box-sizing: content-box; min-height: inherit; color: rgb(0, 51, 102) !important;&quot; class=&quot;js string&quot;&gt;&quot;abtest-sdk.cdnjtzy.com&quot;&lt;/code&gt;&lt;code style=&quot;font-family: Consolas, &amp;quot;Bitstream Vera Sans Mono&amp;quot;, &amp;quot;Courier New&amp;quot;, Courier, monospace; border-radius: 0px; background: none; border: 0px; inset: auto; float: none; height: auto; line-height: 20px; margin: 0px; outline: 0px; overflow: visible; padding: 0px; position: static; vertical-align: baseline; width: auto; box-sizing: content-box; min-height: inherit; color: rgb(0, 0, 0) !important;&quot; class=&quot;js plain&quot;&gt;,&lt;/code&gt;&lt;/div&gt;&lt;div style=&quot;margin: 0px; padding: 0px 1em 0px 0em; border-radius: 0px; background: none rgb(255, 255, 255); border: 0px; inset: auto; float: none; height: auto; line-height: 20px; outline: 0px; overflow: visible; position: static; text-align: left; vertical-align: baseline; width: auto; box-sizing: content-box; font-family: Consolas, &amp;quot;Bitstream Vera Sans Mono&amp;quot;, &amp;quot;Courier New&amp;quot;, Courier, monospace; font-size: 14px; min-height: inherit; text-wrap: nowrap; color: rgb(51, 51, 51);&quot; data-bidi-marker=&quot;true&quot; class=&quot;line number13 index12 alt2&quot;&gt;&lt;code style=&quot;font-family: Consolas, &amp;quot;Bitstream Vera Sans Mono&amp;quot;, &amp;quot;Courier New&amp;quot;, Courier, monospace; border-radius: 0px; background: none; border: 0px; inset: auto; float: none; height: auto; line-height: 20px; margin: 0px; outline: 0px; overflow: visible; padding: 0px; position: static; vertical-align: baseline; width: auto; box-sizing: content-box; min-height: inherit;&quot; class=&quot;js spaces&quot;&gt;&amp;nbsp;&amp;nbsp;&amp;nbsp;&amp;nbsp;&lt;/code&gt;&lt;code style=&quot;font-family: Consolas, &amp;quot;Bitstream Vera Sans Mono&amp;quot;, &amp;quot;Courier New&amp;quot;, Courier, monospace; border-radius: 0px; background: none; border: 0px; inset: auto; float: none; height: auto; line-height: 20px; margin: 0px; outline: 0px; overflow: visible; padding: 0px; position: static; vertical-align: baseline; width: auto; box-sizing: content-box; min-height: inherit; color: rgb(0, 51, 102) !important;&quot; class=&quot;js string&quot;&gt;&quot;adult.cdnjtzy.com&quot;&lt;/code&gt;&lt;code style=&quot;font-family: Consolas, &amp;quot;Bitstream Vera Sans Mono&amp;quot;, &amp;quot;Courier New&amp;quot;, Courier, monospace; border-radius: 0px; background: none; border: 0px; inset: auto; float: none; height: auto; line-height: 20px; margin: 0px; outline: 0px; overflow: visible; padding: 0px; position: static; vertical-align: baseline; width: auto; box-sizing: content-box; min-height: inherit; color: rgb(0, 0, 0) !important;&quot; class=&quot;js plain&quot;&gt;,&lt;/code&gt;&lt;/div&gt;&lt;div style=&quot;margin: 0px; padding: 0px 1em 0px 0em; border-radius: 0px; background: none rgb(255, 255, 255); border: 0px; inset: auto; float: none; height: auto; line-height: 20px; outline: 0px; overflow: visible; position: static; text-align: left; vertical-align: baseline; width: auto; box-sizing: content-box; font-family: Consolas, &amp;quot;Bitstream Vera Sans Mono&amp;quot;, &amp;quot;Courier New&amp;quot;, Courier, monospace; font-size: 14px; min-height: inherit; text-wrap: nowrap; color: rgb(51, 51, 51);&quot; data-bidi-marker=&quot;true&quot; class=&quot;line number14 index13 alt1&quot;&gt;&lt;code style=&quot;font-family: Consolas, &amp;quot;Bitstream Vera Sans Mono&amp;quot;, &amp;quot;Courier New&amp;quot;, Courier, monospace; border-radius: 0px; background: none; border: 0px; inset: auto; float: none; height: auto; line-height: 20px; margin: 0px; outline: 0px; overflow: visible; padding: 0px; position: static; vertical-align: baseline; width: auto; box-sizing: content-box; min-height: inherit;&quot; class=&quot;js spaces&quot;&gt;&amp;nbsp;&amp;nbsp;&amp;nbsp;&amp;nbsp;&lt;/code&gt;&lt;code style=&quot;font-family: Consolas, &amp;quot;Bitstream Vera Sans Mono&amp;quot;, &amp;quot;Courier New&amp;quot;, Courier, monospace; border-radius: 0px; background: none; border: 0px; inset: auto; float: none; height: auto; line-height: 20px; margin: 0px; outline: 0px; overflow: visible; padding: 0px; position: static; vertical-align: baseline; width: auto; box-sizing: content-box; min-height: inherit; color: rgb(0, 51, 102) !important;&quot; class=&quot;js string&quot;&gt;&quot;afterclass-prt-cloud.cdnjtzy.com&quot;&lt;/code&gt;&lt;code style=&quot;font-family: Consolas, &amp;quot;Bitstream Vera Sans Mono&amp;quot;, &amp;quot;Courier New&amp;quot;, Courier, monospace; border-radius: 0px; background: none; border: 0px; inset: auto; float: none; height: auto; line-height: 20px; margin: 0px; outline: 0px; overflow: visible; padding: 0px; position: static; vertical-align: baseline; width: auto; box-sizing: content-box; min-height: inherit; color: rgb(0, 0, 0) !important;&quot; class=&quot;js plain&quot;&gt;,&lt;/code&gt;&lt;/div&gt;&lt;div style=&quot;margin: 0px; padding: 0px 1em 0px 0em; border-radius: 0px; background: none rgb(255, 255, 255); border: 0px; inset: auto; float: none; height: auto; line-height: 20px; outline: 0px; overflow: visible; position: static; text-align: left; vertical-align: baseline; width: auto; box-sizing: content-box; font-family: Consolas, &amp;quot;Bitstream Vera Sans Mono&amp;quot;, &amp;quot;Courier New&amp;quot;, Courier, monospace; font-size: 14px; min-height: inherit; text-wrap: nowrap; color: rgb(51, 51, 51);&quot; data-bidi-marker=&quot;true&quot; class=&quot;line number15 index14 alt2&quot;&gt;&lt;code style=&quot;font-family: Consolas, &amp;quot;Bitstream Vera Sans Mono&amp;quot;, &amp;quot;Courier New&amp;quot;, Courier, monospace; border-radius: 0px; background: none; border: 0px; inset: auto; float: none; height: auto; line-height: 20px; margin: 0px; outline: 0px; overflow: visible; padding: 0px; position: static; vertical-align: baseline; width: auto; box-sizing: content-box; min-height: inherit;&quot; class=&quot;js spaces&quot;&gt;&amp;nbsp;&amp;nbsp;&amp;nbsp;&amp;nbsp;&lt;/code&gt;&lt;code style=&quot;font-family: Consolas, &amp;quot;Bitstream Vera Sans Mono&amp;quot;, &amp;quot;Courier New&amp;quot;, Courier, monospace; border-radius: 0px; background: none; border: 0px; inset: auto; float: none; height: auto; line-height: 20px; margin: 0px; outline: 0px; overflow: visible; padding: 0px; position: static; vertical-align: baseline; width: auto; box-sizing: content-box; min-height: inherit; color: rgb(0, 51, 102) !important;&quot; class=&quot;js string&quot;&gt;&quot;afterclass.cdnjtzy.com&quot;&lt;/code&gt;&lt;/div&gt;&lt;div style=&quot;margin: 0px; padding: 0px 1em 0px 0em; border-radius: 0px; background: none rgb(255, 255, 255); border: 0px; inset: auto; float: none; height: auto; line-height: 20px; outline: 0px; overflow: visible; position: static; text-align: left; vertical-align: baseline; width: auto; box-sizing: content-box; font-family: Consolas, &amp;quot;Bitstream Vera Sans Mono&amp;quot;, &amp;quot;Courier New&amp;quot;, Courier, monospace; font-size: 14px; min-height: inherit; text-wrap: nowrap; color: rgb(51, 51, 51);&quot; data-bidi-marker=&quot;true&quot; class=&quot;line number16 index15 alt1&quot;&gt;&lt;code style=&quot;font-family: Consolas, &amp;quot;Bitstream Vera Sans Mono&amp;quot;, &amp;quot;Courier New&amp;quot;, Courier, monospace; border-radius: 0px; background: none; border: 0px; inset: auto; float: none; height: auto; line-height: 20px; margin: 0px; outline: 0px; overflow: visible; padding: 0px; position: static; vertical-align: baseline; width: auto; box-sizing: content-box; min-height: inherit;&quot; class=&quot;js spaces&quot;&gt;&amp;nbsp;&amp;nbsp;&lt;/code&gt;&lt;code style=&quot;font-family: Consolas, &amp;quot;Bitstream Vera Sans Mono&amp;quot;, &amp;quot;Courier New&amp;quot;, Courier, monospace; border-radius: 0px; background: none; border: 0px; inset: auto; float: none; height: auto; line-height: 20px; margin: 0px; outline: 0px; overflow: visible; padding: 0px; position: static; vertical-align: baseline; width: auto; box-sizing: content-box; min-height: inherit; color: rgb(0, 0, 0) !important;&quot; class=&quot;js plain&quot;&gt;],&lt;/code&gt;&lt;/div&gt;&lt;div style=&quot;margin: 0px; padding: 0px 1em 0px 0em; border-radius: 0px; background: none rgb(255, 255, 255); border: 0px; inset: auto; float: none; height: auto; line-height: 20px; outline: 0px; overflow: visible; position: static; text-align: left; vertical-align: baseline; width: auto; box-sizing: content-box; font-family: Consolas, &amp;quot;Bitstream Vera Sans Mono&amp;quot;, &amp;quot;Courier New&amp;quot;, Courier, monospace; font-size: 14px; min-height: inherit; text-wrap: nowrap; color: rgb(51, 51, 51);&quot; data-bidi-marker=&quot;true&quot; class=&quot;line number17 index16 alt2&quot;&gt;&lt;code style=&quot;font-family: Consolas, &amp;quot;Bitstream Vera Sans Mono&amp;quot;, &amp;quot;Courier New&amp;quot;, Courier, monospace; border-radius: 0px; background: none; border: 0px; inset: auto; float: none; height: auto; line-height: 20px; margin: 0px; outline: 0px; overflow: visible; padding: 0px; position: static; vertical-align: baseline; width: auto; box-sizing: content-box; min-height: inherit;&quot; class=&quot;js spaces&quot;&gt;&amp;nbsp;&amp;nbsp;&lt;/code&gt;&lt;code style=&quot;font-family: Consolas, &amp;quot;Bitstream Vera Sans Mono&amp;quot;, &amp;quot;Courier New&amp;quot;, Courier, monospace; border-radius: 0px; background: none; border: 0px; inset: auto; float: none; height: auto; line-height: 20px; margin: 0px; outline: 0px; overflow: visible; padding: 0px; position: static; vertical-align: baseline; width: auto; box-sizing: content-box; min-height: inherit; color: rgb(0, 0, 0) !important;&quot; class=&quot;js plain&quot;&gt;localConfigVersion:1710212946,&lt;/code&gt;&lt;code style=&quot;font-family: Consolas, &amp;quot;Bitstream Vera Sans Mono&amp;quot;, &amp;quot;Courier New&amp;quot;, Courier, monospace; border-radius: 0px; background: none; border: 0px; inset: auto; float: none; height: auto; line-height: 20px; margin: 0px; outline: 0px; overflow: visible; padding: 0px; position: static; vertical-align: baseline; width: auto; box-sizing: content-box; min-height: inherit; color: rgb(0, 130, 0) !important;&quot; class=&quot;js comments&quot;&gt;// 编译时的时间戳&lt;/code&gt;&lt;/div&gt;&lt;div style=&quot;margin: 0px; padding: 0px 1em 0px 0em; border-radius: 0px; background: none rgb(255, 255, 255); border: 0px; inset: auto; float: none; height: auto; line-height: 20px; outline: 0px; overflow: visible; position: static; text-align: left; vertical-align: baseline; width: auto; box-sizing: content-box; font-family: Consolas, &amp;quot;Bitstream Vera Sans Mono&amp;quot;, &amp;quot;Courier New&amp;quot;, Courier, monospace; font-size: 14px; min-height: inherit; text-wrap: nowrap; color: rgb(51, 51, 51);&quot; data-bidi-marker=&quot;true&quot; class=&quot;line number18 index17 alt1&quot;&gt;&lt;code style=&quot;font-family: Consolas, &amp;quot;Bitstream Vera Sans Mono&amp;quot;, &amp;quot;Courier New&amp;quot;, Courier, monospace; border-radius: 0px; background: none; border: 0px; inset: auto; float: none; height: auto; line-height: 20px; margin: 0px; outline: 0px; overflow: visible; padding: 0px; position: static; vertical-align: baseline; width: auto; box-sizing: content-box; min-height: inherit;&quot; class=&quot;js spaces&quot;&gt;&amp;nbsp;&amp;nbsp;&lt;/code&gt;&lt;code style=&quot;font-family: Consolas, &amp;quot;Bitstream Vera Sans Mono&amp;quot;, &amp;quot;Courier New&amp;quot;, Courier, monospace; border-radius: 0px; background: none; border: 0px; inset: auto; float: none; height: auto; line-height: 20px; margin: 0px; outline: 0px; overflow: visible; padding: 0px; position: static; vertical-align: baseline; width: auto; box-sizing: content-box; min-height: inherit; color: rgb(0, 0, 0) !important;&quot; class=&quot;js plain&quot;&gt;expireTime:2592e3&lt;/code&gt;&lt;code style=&quot;font-family: Consolas, &amp;quot;Bitstream Vera Sans Mono&amp;quot;, &amp;quot;Courier New&amp;quot;, Courier, monospace; border-radius: 0px; background: none; border: 0px; inset: auto; float: none; height: auto; line-height: 20px; margin: 0px; outline: 0px; overflow: visible; padding: 0px; position: static; vertical-align: baseline; width: auto; box-sizing: content-box; min-height: inherit; color: rgb(0, 130, 0) !important;&quot; class=&quot;js comments&quot;&gt;// 默认 30天，可配置&lt;/code&gt;&lt;/div&gt;&lt;div style=&quot;margin: 0px; padding: 0px 1em 0px 0em; border-radius: 0px; background: none rgb(255, 255, 255); border: 0px; inset: auto; float: none; height: auto; line-height: 20px; outline: 0px; overflow: visible; position: static; text-align: left; vertical-align: baseline; width: auto; box-sizing: content-box; font-family: Consolas, &amp;quot;Bitstream Vera Sans Mono&amp;quot;, &amp;quot;Courier New&amp;quot;, Courier, monospace; font-size: 14px; min-height: inherit; text-wrap: nowrap; color: rgb(51, 51, 51);&quot; data-bidi-marker=&quot;true&quot; class=&quot;line number19 index18 alt2&quot;&gt;&lt;code style=&quot;font-family: Consolas, &amp;quot;Bitstream Vera Sans Mono&amp;quot;, &amp;quot;Courier New&amp;quot;, Courier, monospace; border-radius: 0px; background: none; border: 0px; inset: auto; float: none; height: auto; line-height: 20px; margin: 0px; outline: 0px; overflow: visible; padding: 0px; position: static; vertical-align: baseline; width: auto; box-sizing: content-box; min-height: inherit; color: rgb(0, 0, 0) !important;&quot; class=&quot;js plain&quot;&gt;}&lt;/code&gt;&lt;/div&gt;" style="rounded=0;whiteSpace=wrap;html=1;" parent="1" vertex="1">
          <mxGeometry x="640" y="-200" width="420" height="430" as="geometry" />
        </mxCell>
        <mxCell id="1BIcpCfRkdnZa632O0yS-57" value="" style="endArrow=none;dashed=1;html=1;dashPattern=1 3;strokeWidth=2;rounded=0;exitX=0.905;exitY=0.5;exitDx=0;exitDy=0;exitPerimeter=0;entryX=0;entryY=0.5;entryDx=0;entryDy=0;" parent="1" source="3" target="1BIcpCfRkdnZa632O0yS-56" edge="1">
          <mxGeometry width="50" height="50" relative="1" as="geometry">
            <mxPoint x="690" y="210" as="sourcePoint" />
            <mxPoint x="740" y="160" as="targetPoint" />
          </mxGeometry>
        </mxCell>
        <mxCell id="1BIcpCfRkdnZa632O0yS-58" value="&lt;div style=&quot;text-align: left;&quot;&gt;&lt;span style=&quot;background-color: initial;&quot;&gt;构建配置&lt;br&gt;&lt;/span&gt;&lt;/div&gt;&lt;div style=&quot;text-align: left;&quot;&gt;&lt;span style=&quot;background-color: initial;&quot;&gt;本地缓存数据&amp;nbsp;&lt;/span&gt;&lt;code style=&quot;background-color: initial;&quot;&gt;__retryLocalData&lt;/code&gt;&lt;/div&gt;&lt;div style=&quot;text-align: left;&quot;&gt;可重试域名集合&amp;nbsp;&lt;span style=&quot;background-color: initial;&quot;&gt;__retryConfig、&lt;/span&gt;&lt;span style=&quot;background-color: initial;&quot;&gt;__retryConfigObj&lt;/span&gt;&lt;br&gt;&lt;/div&gt;&lt;div style=&quot;text-align: left;&quot;&gt;&lt;span style=&quot;background-color: initial;&quot;&gt;重试指标数据&amp;nbsp;&lt;/span&gt;&lt;span style=&quot;background-color: initial;&quot;&gt;__retryMetrics&lt;/span&gt;&lt;span style=&quot;background-color: initial;&quot;&gt;&lt;br&gt;&lt;/span&gt;&lt;/div&gt;&lt;div style=&quot;text-align: left;&quot;&gt;&lt;span style=&quot;background-color: initial;&quot;&gt;开关配置&lt;br&gt;&lt;/span&gt;&lt;/div&gt;&lt;div style=&quot;text-align: left;&quot;&gt;&lt;span style=&quot;background-color: initial;&quot;&gt;数据收集配置&lt;br&gt;&lt;/span&gt;&lt;/div&gt;&lt;div style=&quot;text-align: left;&quot;&gt;&lt;span style=&quot;background-color: initial;&quot;&gt;异常资源 &amp;amp; 成功资源&amp;nbsp;&lt;/span&gt;&lt;span style=&quot;background-color: initial; text-align: center;&quot;&gt;__errorResources __successResources&lt;/span&gt;&lt;span style=&quot;background-color: initial;&quot;&gt;&lt;br&gt;&lt;/span&gt;&lt;/div&gt;&lt;div style=&quot;text-align: left;&quot;&gt;&lt;span style=&quot;background-color: initial; text-align: center;&quot;&gt;重试脚本索引 &amp;amp; 重试样式索引&amp;nbsp;&lt;/span&gt;&lt;span style=&quot;background-color: initial; text-align: center;&quot;&gt;_retryJSIndex、__retryCSSIndex&lt;/span&gt;&lt;span style=&quot;background-color: initial; text-align: center;&quot;&gt;&lt;br&gt;&lt;/span&gt;&lt;/div&gt;&lt;div style=&quot;text-align: left;&quot;&gt;&lt;span style=&quot;background-color: initial; text-align: center;&quot;&gt;轮询计时器&lt;br&gt;&lt;/span&gt;&lt;/div&gt;&lt;div style=&quot;text-align: left;&quot;&gt;&lt;span style=&quot;background-color: initial; text-align: center;&quot;&gt;请求域名&lt;br&gt;&lt;/span&gt;&lt;/div&gt;" style="rounded=0;whiteSpace=wrap;html=1;" parent="1" vertex="1">
          <mxGeometry x="640" y="280" width="360" height="150" as="geometry" />
        </mxCell>
        <mxCell id="1BIcpCfRkdnZa632O0yS-59" value="" style="endArrow=none;dashed=1;html=1;dashPattern=1 3;strokeWidth=2;rounded=0;exitX=0.905;exitY=0.5;exitDx=0;exitDy=0;exitPerimeter=0;entryX=0;entryY=0.25;entryDx=0;entryDy=0;" parent="1" source="5" target="1BIcpCfRkdnZa632O0yS-58" edge="1">
          <mxGeometry width="50" height="50" relative="1" as="geometry">
            <mxPoint x="394" y="180" as="sourcePoint" />
            <mxPoint x="680" y="105" as="targetPoint" />
          </mxGeometry>
        </mxCell>
        <mxCell id="1BIcpCfRkdnZa632O0yS-60" value="&lt;div&gt;retryLocalData（有本地缓存）&lt;/div&gt;&lt;div&gt;{&lt;/div&gt;&lt;div&gt;&amp;nbsp; &amp;nbsp; &quot;configVersion&quot;: -1,&lt;/div&gt;&lt;div&gt;&amp;nbsp; &amp;nbsp; &quot;configExpire&quot;: -1,&lt;/div&gt;&lt;div&gt;&amp;nbsp; &amp;nbsp; &quot;metricsExpire&quot;: -1,&lt;/div&gt;&lt;div&gt;&amp;nbsp; &amp;nbsp; &quot;enableRetry&quot;: null,&lt;/div&gt;&lt;div&gt;&amp;nbsp; &amp;nbsp; &quot;enableExpire&quot;: -1,&lt;/div&gt;&lt;div&gt;&amp;nbsp; &amp;nbsp; &quot;tempCuid&quot;: null&lt;/div&gt;&lt;div&gt;}&lt;/div&gt;" style="rounded=0;whiteSpace=wrap;html=1;align=left;" parent="1" vertex="1">
          <mxGeometry x="1120" y="40" width="160" height="160" as="geometry" />
        </mxCell>
        <mxCell id="1BIcpCfRkdnZa632O0yS-61" value="" style="endArrow=none;dashed=1;html=1;dashPattern=1 3;strokeWidth=2;rounded=0;exitX=1;exitY=0;exitDx=0;exitDy=0;entryX=0;entryY=0.25;entryDx=0;entryDy=0;" parent="1" source="1BIcpCfRkdnZa632O0yS-58" target="1BIcpCfRkdnZa632O0yS-60" edge="1">
          <mxGeometry width="50" height="50" relative="1" as="geometry">
            <mxPoint x="1000" y="355" as="sourcePoint" />
            <mxPoint x="1256" y="200" as="targetPoint" />
          </mxGeometry>
        </mxCell>
        <mxCell id="1BIcpCfRkdnZa632O0yS-63" value="&lt;div&gt;判断是否重试开启&lt;br&gt;&lt;/div&gt;__enableRetry" style="shape=mxgraph.flowchart.data;strokeWidth=2;gradientColor=none;gradientDirection=north;fontStyle=0;html=1;" parent="1" vertex="1">
          <mxGeometry x="242" y="400" width="159" height="80" as="geometry" />
        </mxCell>
        <mxCell id="1BIcpCfRkdnZa632O0yS-64" value="编译配置中的&lt;div&gt;switchControl&lt;/div&gt;" style="shape=mxgraph.flowchart.decision;strokeWidth=2;gradientColor=none;gradientDirection=north;fontStyle=0;html=1;" parent="1" vertex="1">
          <mxGeometry x="441" y="401.5" width="119" height="78.5" as="geometry" />
        </mxCell>
        <mxCell id="1BIcpCfRkdnZa632O0yS-65" style="entryX=0;entryY=0.5;entryPerimeter=0;fontStyle=1;strokeColor=#003366;strokeWidth=1;html=1;exitX=0.905;exitY=0.5;exitDx=0;exitDy=0;exitPerimeter=0;entryDx=0;entryDy=0;" parent="1" source="1BIcpCfRkdnZa632O0yS-63" target="1BIcpCfRkdnZa632O0yS-64" edge="1">
          <mxGeometry relative="1" as="geometry">
            <mxPoint x="330" y="340" as="sourcePoint" />
            <mxPoint x="330" y="400" as="targetPoint" />
          </mxGeometry>
        </mxCell>
        <mxCell id="1BIcpCfRkdnZa632O0yS-66" style="fontStyle=1;strokeColor=#003366;strokeWidth=1;html=1;exitX=0.5;exitY=1;exitDx=0;exitDy=0;exitPerimeter=0;entryX=0.5;entryY=0;entryDx=0;entryDy=0;entryPerimeter=0;" parent="1" source="1BIcpCfRkdnZa632O0yS-64" target="1BIcpCfRkdnZa632O0yS-72" edge="1">
          <mxGeometry relative="1" as="geometry">
            <mxPoint x="396" y="450" as="sourcePoint" />
            <mxPoint x="501" y="550" as="targetPoint" />
          </mxGeometry>
        </mxCell>
        <mxCell id="1BIcpCfRkdnZa632O0yS-67" value="true" style="edgeLabel;html=1;align=center;verticalAlign=middle;resizable=0;points=[];" parent="1BIcpCfRkdnZa632O0yS-66" vertex="1" connectable="0">
          <mxGeometry x="0.038" relative="1" as="geometry">
            <mxPoint as="offset" />
          </mxGeometry>
        </mxCell>
        <mxCell id="1BIcpCfRkdnZa632O0yS-68" value="" style="fontStyle=1;strokeColor=#003366;strokeWidth=1;html=1;exitX=1;exitY=0.5;exitDx=0;exitDy=0;exitPerimeter=0;entryX=0.985;entryY=0.02;entryDx=0;entryDy=0;entryPerimeter=0;" parent="1" source="1BIcpCfRkdnZa632O0yS-64" target="1BIcpCfRkdnZa632O0yS-70" edge="1">
          <mxGeometry x="0.0027" relative="1" as="geometry">
            <mxPoint x="396" y="450" as="sourcePoint" />
            <mxPoint x="560" y="490" as="targetPoint" />
            <Array as="points">
              <mxPoint x="680" y="560" />
            </Array>
            <mxPoint as="offset" />
          </mxGeometry>
        </mxCell>
        <mxCell id="1BIcpCfRkdnZa632O0yS-69" value="false" style="edgeLabel;html=1;align=center;verticalAlign=middle;resizable=0;points=[];" parent="1BIcpCfRkdnZa632O0yS-68" vertex="1" connectable="0">
          <mxGeometry x="-0.0964" relative="1" as="geometry">
            <mxPoint y="1" as="offset" />
          </mxGeometry>
        </mxCell>
        <mxCell id="1BIcpCfRkdnZa632O0yS-70" value="开启" style="shape=mxgraph.flowchart.data;strokeWidth=2;gradientColor=none;gradientDirection=north;fontStyle=0;html=1;" parent="1" vertex="1">
          <mxGeometry x="650" y="1014.25" width="159" height="80" as="geometry" />
        </mxCell>
        <mxCell id="1BIcpCfRkdnZa632O0yS-72" value="query中&lt;div&gt;__enable_cdn_retry__的值&lt;br&gt;&lt;/div&gt;" style="shape=mxgraph.flowchart.decision;strokeWidth=2;gradientColor=none;gradientDirection=north;fontStyle=0;html=1;" parent="1" vertex="1">
          <mxGeometry x="441" y="561.5" width="119" height="78.5" as="geometry" />
        </mxCell>
        <mxCell id="1BIcpCfRkdnZa632O0yS-73" style="fontStyle=1;strokeColor=#003366;strokeWidth=1;html=1;exitX=1;exitY=0.5;exitDx=0;exitDy=0;exitPerimeter=0;entryX=0.985;entryY=0.02;entryDx=0;entryDy=0;entryPerimeter=0;" parent="1" source="1BIcpCfRkdnZa632O0yS-72" target="1BIcpCfRkdnZa632O0yS-70" edge="1">
          <mxGeometry relative="1" as="geometry">
            <mxPoint x="511" y="490" as="sourcePoint" />
            <mxPoint x="501" y="700" as="targetPoint" />
            <Array as="points">
              <mxPoint x="680" y="710" />
            </Array>
          </mxGeometry>
        </mxCell>
        <mxCell id="1BIcpCfRkdnZa632O0yS-74" value="1" style="edgeLabel;html=1;align=center;verticalAlign=middle;resizable=0;points=[];" parent="1BIcpCfRkdnZa632O0yS-73" vertex="1" connectable="0">
          <mxGeometry x="0.038" relative="1" as="geometry">
            <mxPoint as="offset" />
          </mxGeometry>
        </mxCell>
        <mxCell id="1BIcpCfRkdnZa632O0yS-77" value="__retryLocalData" style="text;whiteSpace=wrap;" parent="1" vertex="1">
          <mxGeometry x="470" y="480" width="120" height="40" as="geometry" />
        </mxCell>
        <mxCell id="1BIcpCfRkdnZa632O0yS-78" value="&lt;div&gt;在&lt;span style=&quot;text-align: left; text-wrap: wrap; background-color: initial;&quot;&gt;retryLocalData中是否有此模块&lt;/span&gt;&lt;/div&gt;" style="shape=mxgraph.flowchart.decision;strokeWidth=2;gradientColor=none;gradientDirection=north;fontStyle=0;html=1;" parent="1" vertex="1">
          <mxGeometry x="441" y="895.75" width="119" height="78.5" as="geometry" />
        </mxCell>
        <mxCell id="1BIcpCfRkdnZa632O0yS-79" style="fontStyle=1;strokeColor=#003366;strokeWidth=1;html=1;exitX=1;exitY=0.5;exitDx=0;exitDy=0;exitPerimeter=0;entryX=0.985;entryY=0.02;entryDx=0;entryDy=0;entryPerimeter=0;" parent="1" source="1BIcpCfRkdnZa632O0yS-78" target="1BIcpCfRkdnZa632O0yS-70" edge="1">
          <mxGeometry relative="1" as="geometry">
            <mxPoint x="570" y="725.25" as="sourcePoint" />
            <mxPoint x="608" y="946.25" as="targetPoint" />
            <Array as="points">
              <mxPoint x="690" y="944.25" />
            </Array>
          </mxGeometry>
        </mxCell>
        <mxCell id="1BIcpCfRkdnZa632O0yS-80" value="1" style="edgeLabel;html=1;align=center;verticalAlign=middle;resizable=0;points=[];" parent="1BIcpCfRkdnZa632O0yS-79" vertex="1" connectable="0">
          <mxGeometry x="0.038" relative="1" as="geometry">
            <mxPoint as="offset" />
          </mxGeometry>
        </mxCell>
        <mxCell id="1BIcpCfRkdnZa632O0yS-81" value="是" style="edgeLabel;html=1;align=center;verticalAlign=middle;resizable=0;points=[];" parent="1BIcpCfRkdnZa632O0yS-79" vertex="1" connectable="0">
          <mxGeometry x="0.0647" y="3" relative="1" as="geometry">
            <mxPoint as="offset" />
          </mxGeometry>
        </mxCell>
        <mxCell id="1BIcpCfRkdnZa632O0yS-82" style="edgeStyle=orthogonalEdgeStyle;rounded=0;orthogonalLoop=1;jettySize=auto;html=1;exitX=0.5;exitY=1;exitDx=0;exitDy=0;exitPerimeter=0;entryX=0.5;entryY=0;entryDx=0;entryDy=0;entryPerimeter=0;" parent="1" source="1BIcpCfRkdnZa632O0yS-91" target="1BIcpCfRkdnZa632O0yS-84" edge="1">
          <mxGeometry relative="1" as="geometry">
            <mxPoint x="560" y="690" as="targetPoint" />
          </mxGeometry>
        </mxCell>
        <mxCell id="1BIcpCfRkdnZa632O0yS-84" value="从接口拉取配置更新retryLocalData&lt;div&gt;http://mercury/object/get&lt;/div&gt;&lt;div&gt;（异步，10分钟过期）&lt;/div&gt;" style="shape=mxgraph.flowchart.data;strokeWidth=2;gradientColor=none;gradientDirection=north;fontStyle=0;html=1;" parent="1" vertex="1">
          <mxGeometry x="421" y="770" width="159" height="60" as="geometry" />
        </mxCell>
        <mxCell id="1BIcpCfRkdnZa632O0yS-86" style="edgeStyle=orthogonalEdgeStyle;rounded=0;orthogonalLoop=1;jettySize=auto;html=1;exitX=0.5;exitY=1;exitDx=0;exitDy=0;exitPerimeter=0;entryX=1;entryY=0.5;entryDx=0;entryDy=0;entryPerimeter=0;" parent="1" source="1BIcpCfRkdnZa632O0yS-78" target="40" edge="1">
          <mxGeometry relative="1" as="geometry">
            <mxPoint x="500.5" y="1014.25" as="targetPoint" />
          </mxGeometry>
        </mxCell>
        <mxCell id="1BIcpCfRkdnZa632O0yS-96" value="否" style="edgeLabel;html=1;align=center;verticalAlign=middle;resizable=0;points=[];" parent="1BIcpCfRkdnZa632O0yS-86" vertex="1" connectable="0">
          <mxGeometry x="-0.9239" y="2" relative="1" as="geometry">
            <mxPoint x="-2" y="-1" as="offset" />
          </mxGeometry>
        </mxCell>
        <mxCell id="1BIcpCfRkdnZa632O0yS-88" style="edgeStyle=orthogonalEdgeStyle;rounded=0;orthogonalLoop=1;jettySize=auto;html=1;exitX=0.905;exitY=0.5;exitDx=0;exitDy=0;exitPerimeter=0;entryX=0.5;entryY=0;entryDx=0;entryDy=0;entryPerimeter=0;" parent="1" source="1BIcpCfRkdnZa632O0yS-91" target="1BIcpCfRkdnZa632O0yS-78" edge="1">
          <mxGeometry relative="1" as="geometry">
            <Array as="points">
              <mxPoint x="610" y="715" />
              <mxPoint x="610" y="850" />
              <mxPoint x="500" y="850" />
            </Array>
          </mxGeometry>
        </mxCell>
        <mxCell id="1BIcpCfRkdnZa632O0yS-92" value="" style="edgeStyle=orthogonalEdgeStyle;rounded=0;orthogonalLoop=1;jettySize=auto;html=1;exitX=0.5;exitY=1;exitDx=0;exitDy=0;exitPerimeter=0;entryX=0.5;entryY=0;entryDx=0;entryDy=0;entryPerimeter=0;" parent="1" source="1BIcpCfRkdnZa632O0yS-72" target="1BIcpCfRkdnZa632O0yS-91" edge="1">
          <mxGeometry relative="1" as="geometry">
            <mxPoint x="500" y="640" as="sourcePoint" />
            <mxPoint x="500" y="804" as="targetPoint" />
          </mxGeometry>
        </mxCell>
        <mxCell id="1BIcpCfRkdnZa632O0yS-94" value="非1" style="edgeLabel;html=1;align=center;verticalAlign=middle;resizable=0;points=[];" parent="1BIcpCfRkdnZa632O0yS-92" vertex="1" connectable="0">
          <mxGeometry x="-0.1446" y="-1" relative="1" as="geometry">
            <mxPoint as="offset" />
          </mxGeometry>
        </mxCell>
        <mxCell id="1BIcpCfRkdnZa632O0yS-91" value="" style="shape=mxgraph.flowchart.data;strokeWidth=2;gradientColor=none;gradientDirection=north;fontStyle=0;html=1;" parent="1" vertex="1">
          <mxGeometry x="475" y="700" width="50" height="30" as="geometry" />
        </mxCell>
      </root>
    </mxGraphModel>
  </diagram>
</mxfile>
